<svg width="400" height="564" viewBox="0 0 400 564" fill="none" xmlns="http://www.w3.org/2000/svg">
<path d="M399.388 18.7899C399.109 14.0601 397.103 9.59721 393.753 6.24688C390.403 2.89655 385.94 0.891464 381.21 0.611509C295.27 -4.45327 226.041 22.1771 195.975 71.8087C176.393 104.068 175.716 143.054 193.62 180.363C185.962 190.125 179.848 201.005 175.49 212.622L159.844 196.976C171.441 169.927 170.215 141.957 155.973 118.44C133.423 81.2285 82.0658 61.292 18.6109 64.9696C13.8811 65.2496 9.41829 67.2547 6.06796 70.605C2.71762 73.9553 0.712537 78.4182 0.432582 83.148C-3.24503 146.603 16.6915 197.96 53.9353 220.51C66.5668 228.209 81.0802 232.267 95.873 232.236C108.485 232.133 120.943 229.46 132.488 224.381L167.731 259.689V303.24C167.731 308.373 169.771 313.297 173.401 316.927C177.031 320.556 181.954 322.596 187.087 322.596C192.221 322.596 197.144 320.556 200.774 316.927C204.404 313.297 206.443 308.373 206.443 303.24V255.673C206.403 238.371 211.753 221.486 221.75 207.364C237.933 215.06 255.593 219.155 273.511 219.365C292.795 219.41 311.717 214.13 328.191 204.106C377.823 173.959 404.453 104.714 399.388 18.7899ZM73.9847 187.395C52.7094 174.491 39.8217 143.103 38.7733 103.31C78.5656 104.359 109.97 117.263 122.858 138.522C127.898 146.72 129.965 156.401 128.713 165.943L110.438 147.603C106.802 143.967 101.87 141.924 96.7278 141.924C91.5854 141.924 86.6537 143.967 83.0175 147.603C79.3812 151.239 77.3384 156.171 77.3384 161.313C77.3384 166.456 79.3812 171.387 83.0175 175.024L101.309 193.315C91.7933 194.49 82.1607 192.403 73.9847 187.395ZM308.142 170.975C290.947 181.379 271.043 183.347 250.381 177.04L310.465 116.972C314.101 113.336 316.144 108.404 316.144 103.262C316.144 98.1195 314.101 93.1878 310.465 89.5515C306.828 85.9153 301.897 83.8725 296.754 83.8725C291.612 83.8725 286.68 85.9153 283.044 89.5515L222.96 149.619C216.718 129.037 218.686 109.053 229.025 91.9388C249.623 57.9209 298.383 38.5973 361.29 38.7102C361.516 101.617 342.16 150.297 308.142 170.975Z" fill="#069C54"/>
<path d="M187 252V564M187 252C171 226 148.789 210.024 135 204M187 252C191 206 205.51 193.084 227 172" stroke="#069C54" stroke-width="38.8"/>
</svg>
