<svg xmlns="http://www.w3.org/2000/svg" xmlns:xlink="http://www.w3.org/1999/xlink" width="64" zoomAndPan="magnify" viewBox="0 0 48 48" height="64" preserveAspectRatio="xMidYMid meet" version="1.0"><defs><clipPath id="b175b13548"><path d="M 10 8 L 38 8 L 38 47.019531 L 10 47.019531 Z M 10 8 " clip-rule="nonzero"/></clipPath><clipPath id="2178cb757f"><path d="M 40 20 L 46.039062 20 L 46.039062 24 L 40 24 Z M 40 20 " clip-rule="nonzero"/></clipPath><clipPath id="6546ad3c68"><path d="M 1.960938 20 L 8 20 L 8 24 L 1.960938 24 Z M 1.960938 20 " clip-rule="nonzero"/></clipPath></defs><g clip-path="url(#b175b13548)"><path fill="#069c54" d="M 33.308594 11.636719 C 30.355469 8.992188 26.378906 7.730469 22.410156 8.167969 C 15.941406 8.886719 10.769531 14.109375 10.113281 20.589844 C 9.5625 26.042969 12.257812 31.347656 16.988281 34.101562 C 17.238281 34.246094 17.386719 34.488281 17.386719 34.753906 L 17.386719 36 C 17.386719 37.0625 17.847656 38.011719 18.570312 38.683594 C 18.292969 39.199219 18.121094 39.78125 18.121094 40.40625 L 18.121094 41.878906 C 18.121094 43.902344 19.769531 45.550781 21.796875 45.550781 L 22.53125 45.550781 C 22.53125 46.363281 23.1875 47.019531 24 47.019531 C 24.8125 47.019531 25.46875 46.363281 25.46875 45.550781 L 26.203125 45.550781 C 28.230469 45.550781 29.878906 43.902344 29.878906 41.878906 L 29.878906 40.40625 C 29.878906 39.78125 29.707031 39.199219 29.429688 38.683594 C 30.152344 38.011719 30.613281 37.0625 30.613281 36 L 30.613281 34.75 C 30.613281 34.488281 30.761719 34.246094 31.011719 34.101562 C 35.296875 31.605469 37.960938 26.984375 37.960938 22.039062 C 37.960938 18.074219 36.265625 14.285156 33.308594 11.636719 Z M 26.9375 41.878906 C 26.9375 42.28125 26.609375 42.613281 26.203125 42.613281 L 21.796875 42.613281 C 21.390625 42.613281 21.0625 42.28125 21.0625 41.878906 L 21.0625 40.40625 C 21.0625 40.003906 21.390625 39.671875 21.796875 39.671875 L 26.203125 39.671875 C 26.609375 39.671875 26.9375 40.003906 26.9375 40.40625 Z M 29.53125 31.5625 C 28.386719 32.230469 27.671875 33.449219 27.671875 34.75 L 27.671875 36 C 27.671875 36.40625 27.34375 36.734375 26.9375 36.734375 L 21.0625 36.734375 C 20.65625 36.734375 20.328125 36.40625 20.328125 36 L 20.328125 34.753906 C 20.328125 33.453125 19.613281 32.230469 18.464844 31.558594 C 14.675781 29.351562 12.59375 25.261719 13.039062 20.886719 C 13.570312 15.332031 18.441406 10.960938 24.011719 11.019531 C 29.917969 10.886719 35.136719 16.136719 35.019531 22.039062 C 35.019531 25.945312 32.917969 29.589844 29.53125 31.5625 Z M 29.53125 31.5625 " fill-opacity="1" fill-rule="nonzero"/></g><path fill="#069c54" d="M 30.488281 24.023438 C 29.78125 23.621094 28.886719 23.871094 28.480469 24.574219 C 28.078125 25.28125 28.328125 26.175781 29.03125 26.574219 C 29.722656 26.980469 30.632812 26.738281 31.039062 26.023438 C 31.433594 25.316406 31.191406 24.421875 30.488281 24.023438 Z M 30.488281 24.023438 " fill-opacity="1" fill-rule="nonzero"/><path fill="#069c54" d="M 23.058594 14.011719 C 22.253906 14.101562 21.671875 14.828125 21.757812 15.632812 C 21.847656 16.441406 22.570312 17.019531 23.382812 16.933594 C 25.730469 16.679688 27.90625 17.976562 28.773438 20.125 C 29.074219 20.886719 29.949219 21.242188 30.683594 20.941406 C 31.4375 20.636719 31.800781 19.78125 31.5 19.027344 C 30.144531 15.660156 26.742188 13.605469 23.058594 14.011719 Z M 23.058594 14.011719 " fill-opacity="1" fill-rule="nonzero"/><path fill="#069c54" d="M 24 5.144531 C 24.8125 5.144531 25.46875 4.484375 25.46875 3.671875 L 25.46875 1.46875 C 25.46875 0.65625 24.8125 0 24 0 C 23.1875 0 22.53125 0.65625 22.53125 1.46875 L 22.53125 3.671875 C 22.53125 4.484375 23.1875 5.144531 24 5.144531 Z M 24 5.144531 " fill-opacity="1" fill-rule="nonzero"/><path fill="#069c54" d="M 37.507812 6.457031 L 35.949219 8.015625 C 35.375 8.585938 35.375 9.519531 35.949219 10.09375 C 36.234375 10.378906 36.613281 10.523438 36.988281 10.523438 C 37.363281 10.523438 37.738281 10.378906 38.027344 10.09375 L 39.585938 8.535156 C 40.160156 7.960938 40.160156 7.03125 39.585938 6.457031 C 39.011719 5.882812 38.082031 5.882812 37.507812 6.457031 Z M 37.507812 6.457031 " fill-opacity="1" fill-rule="nonzero"/><g clip-path="url(#2178cb757f)"><path fill="#069c54" d="M 44.570312 20.570312 L 42.367188 20.570312 C 41.554688 20.570312 40.898438 21.230469 40.898438 22.039062 C 40.898438 22.851562 41.554688 23.511719 42.367188 23.511719 L 44.570312 23.511719 C 45.382812 23.511719 46.039062 22.851562 46.039062 22.039062 C 46.039062 21.230469 45.382812 20.570312 44.570312 20.570312 Z M 44.570312 20.570312 " fill-opacity="1" fill-rule="nonzero"/></g><path fill="#069c54" d="M 38.027344 33.988281 C 37.453125 33.414062 36.523438 33.414062 35.949219 33.988281 C 35.375 34.5625 35.375 35.492188 35.949219 36.066406 L 37.507812 37.625 C 37.792969 37.914062 38.171875 38.054688 38.546875 38.054688 C 38.921875 38.054688 39.296875 37.914062 39.585938 37.625 C 40.160156 37.050781 40.160156 36.121094 39.585938 35.546875 Z M 38.027344 33.988281 " fill-opacity="1" fill-rule="nonzero"/><path fill="#069c54" d="M 9.972656 33.988281 L 8.414062 35.546875 C 7.839844 36.121094 7.839844 37.050781 8.414062 37.625 C 8.703125 37.914062 9.078125 38.054688 9.453125 38.054688 C 9.828125 38.054688 10.207031 37.914062 10.492188 37.625 L 12.050781 36.066406 C 12.625 35.492188 12.625 34.5625 12.050781 33.988281 C 11.476562 33.414062 10.546875 33.414062 9.972656 33.988281 Z M 9.972656 33.988281 " fill-opacity="1" fill-rule="nonzero"/><g clip-path="url(#6546ad3c68)"><path fill="#069c54" d="M 5.632812 20.570312 L 3.429688 20.570312 C 2.617188 20.570312 1.960938 21.230469 1.960938 22.039062 C 1.960938 22.851562 2.617188 23.511719 3.429688 23.511719 L 5.632812 23.511719 C 6.445312 23.511719 7.101562 22.851562 7.101562 22.039062 C 7.101562 21.230469 6.445312 20.570312 5.632812 20.570312 Z M 5.632812 20.570312 " fill-opacity="1" fill-rule="nonzero"/></g><path fill="#069c54" d="M 9.972656 10.09375 C 10.261719 10.378906 10.636719 10.523438 11.011719 10.523438 C 11.386719 10.523438 11.765625 10.378906 12.050781 10.09375 C 12.625 9.519531 12.625 8.585938 12.050781 8.015625 L 10.492188 6.457031 C 9.917969 5.882812 8.988281 5.882812 8.414062 6.457031 C 7.839844 7.03125 7.839844 7.960938 8.414062 8.535156 Z M 9.972656 10.09375 " fill-opacity="1" fill-rule="nonzero"/></svg>