<svg xmlns="http://www.w3.org/2000/svg" xmlns:xlink="http://www.w3.org/1999/xlink" width="56" zoomAndPan="magnify" viewBox="0 0 48 48" height="64" preserveAspectRatio="xMidYMid meet" version="1.0"><defs><clipPath id="7230955bb6"><path d="M 2.164062 0 L 45.511719 0 L 45.511719 47.019531 L 2.164062 47.019531 Z M 2.164062 0 " clip-rule="nonzero"/></clipPath><clipPath id="2de1604dc0"><path d="M 5 6 L 45.511719 6 L 45.511719 47.019531 L 5 47.019531 Z M 5 6 " clip-rule="nonzero"/></clipPath><clipPath id="4b6fe0dc9a"><path d="M 2.164062 0 L 39 0 L 39 14 L 2.164062 14 Z M 2.164062 0 " clip-rule="nonzero"/></clipPath></defs><g clip-path="url(#7230955bb6)"><path stroke-linecap="round" transform="matrix(3.333879, 0, 0, 3.358601, -1.165725, -3.358599)" fill="none" stroke-linejoin="miter" d="M 11.500569 9.499633 L 11.500569 7.500335 C 11.500569 6.947882 11.051815 6.500104 10.499952 6.500104 C 9.948089 6.500104 9.500506 6.947882 9.500506 7.500335 L 9.500506 9.499633 " stroke="#069c54" stroke-width="1" stroke-opacity="1" stroke-miterlimit="10"/><path stroke-linecap="round" transform="matrix(3.333879, 0, 0, 3.358601, -1.165725, -3.358599)" fill="none" stroke-linejoin="miter" d="M 9.500506 9.499633 L 9.500506 7.500335 C 9.500506 6.947882 9.051752 6.500104 8.499889 6.500104 C 7.948026 6.500104 7.500443 6.947882 7.500443 7.500335 L 7.500443 9.499633 " stroke="#069c54" stroke-width="1" stroke-opacity="1" stroke-miterlimit="10"/></g><g clip-path="url(#2de1604dc0)"><path stroke-linecap="round" transform="matrix(3.333879, 0, 0, 3.358601, -1.165725, -3.358599)" fill="none" stroke-linejoin="round" d="M 7.500443 9.499633 L 7.500443 4.499643 C 7.500443 3.948353 7.051688 3.500576 6.499826 3.500576 C 5.947963 3.500576 5.50038 3.948353 5.50038 4.499643 L 5.50038 10.499864 L 4.691918 9.427523 L 4.689575 9.429849 C 4.459925 9.170487 4.12951 8.999518 3.749885 8.999518 C 3.059764 8.999518 2.499699 9.560112 2.499699 10.249806 C 2.499699 10.510331 2.580545 10.749921 2.719975 10.949967 L 2.810195 11.069762 L 2.71646 10.953456 L 5.50038 14.499623 L 11.999707 14.499623 L 13.19248 11.923448 C 13.396353 11.311679 13.499461 10.670833 13.499461 10.026499 L 13.499461 8.500566 C 13.499461 7.948113 13.051878 7.500335 12.500015 7.500335 C 11.948152 7.500335 11.500569 7.948113 11.500569 8.500566 L 11.500569 9.499633 " stroke="#069c54" stroke-width="1" stroke-opacity="1" stroke-miterlimit="10"/></g><g clip-path="url(#4b6fe0dc9a)"><path stroke-linecap="round" transform="matrix(3.333879, 0, 0, 3.358601, -1.165725, -3.358599)" fill="none" stroke-linejoin="round" d="M 3.500317 4.499643 L 1.500253 4.499643 L 1.500253 1.500115 L 11.500569 1.500115 L 11.500569 4.499643 L 9.500506 4.499643 " stroke="#069c54" stroke-width="1" stroke-opacity="1" stroke-miterlimit="10"/></g></svg>