<svg width="781" height="206" viewBox="0 0 781 206" fill="none" xmlns="http://www.w3.org/2000/svg">
<path d="M457.847 28.6975C457.777 27.515 457.276 26.3993 456.438 25.5617C455.601 24.7241 454.485 24.2229 453.303 24.1529C431.818 22.8867 414.51 29.5443 406.994 41.9522C402.098 50.0171 401.929 59.7636 406.405 69.0907C404.491 71.5314 402.962 74.2513 401.872 77.1556L397.961 73.2441C400.86 66.4817 400.554 59.4894 396.993 53.61C391.356 44.3071 378.516 39.323 362.653 40.2424C361.47 40.3124 360.355 40.8137 359.517 41.6513C358.679 42.4888 358.178 43.6045 358.108 44.787C357.189 60.6507 362.173 73.4901 371.484 79.1275C374.642 81.0522 378.27 82.0667 381.968 82.0591C385.121 82.0332 388.236 81.365 391.122 80.0953L399.933 88.9223V99.81C399.933 101.093 400.443 102.324 401.35 103.232C402.258 104.139 403.488 104.649 404.772 104.649C406.055 104.649 407.286 104.139 408.193 103.232C409.101 102.324 409.611 101.093 409.611 99.81V87.9182C409.601 83.5927 410.938 79.3715 413.438 75.841C417.483 77.7651 421.898 78.7887 426.378 78.8412C431.199 78.8526 435.929 77.5325 440.048 75.0264C452.456 67.4898 459.113 50.1784 457.847 28.6975ZM376.496 70.8488C371.177 67.6228 367.955 59.7757 367.693 49.8276C377.641 50.0897 385.493 53.3157 388.715 58.6304C389.975 60.6799 390.491 63.1003 390.178 65.4856L385.61 60.9007C384.701 59.9917 383.468 59.481 382.182 59.481C380.896 59.481 379.663 59.9917 378.754 60.9007C377.845 61.8098 377.335 63.0427 377.335 64.3283C377.335 65.6139 377.845 66.8469 378.754 67.7559L383.327 72.3287C380.948 72.6225 378.54 72.1007 376.496 70.8488ZM435.035 66.7438C430.737 69.3447 425.761 69.8367 420.595 68.26L435.616 53.2431C436.525 52.334 437.036 51.1011 437.036 49.8155C437.036 48.5299 436.525 47.2969 435.616 46.3879C434.707 45.4788 433.474 44.9681 432.189 44.9681C430.903 44.9681 429.67 45.4788 428.761 46.3879L413.74 61.4048C412.179 56.2594 412.671 51.2631 415.256 46.9847C420.406 38.4802 432.596 33.6493 448.322 33.6776C448.379 49.4042 443.54 61.5741 435.035 66.7438Z" fill="#069C54"/>
<path d="M405 87V165M405 87C401 80.5 395.447 76.506 392 75M405 87C406 75.5 409.628 72.2711 415 67" stroke="#069C54" stroke-width="12"/>
<path d="M83.8695 141.75H38.2695L29.8695 165H15.4695L53.2695 61.05H69.0195L106.67 165H92.2695L83.8695 141.75ZM79.9695 130.65L61.0695 77.85L42.1695 130.65H79.9695ZM157.044 81.45C164.144 81.45 170.344 83 175.644 86.1C181.044 89.2 185.044 93.1 187.644 97.8V82.8H201.444V166.8C201.444 174.3 199.844 180.95 196.644 186.75C193.444 192.65 188.844 197.25 182.844 200.55C176.944 203.85 170.044 205.5 162.144 205.5C151.344 205.5 142.344 202.95 135.144 197.85C127.944 192.75 123.694 185.8 122.394 177H135.894C137.394 182 140.494 186 145.194 189C149.894 192.1 155.544 193.65 162.144 193.65C169.644 193.65 175.744 191.3 180.444 186.6C185.244 181.9 187.644 175.3 187.644 166.8V149.55C184.944 154.35 180.944 158.35 175.644 161.55C170.344 164.75 164.144 166.35 157.044 166.35C149.744 166.35 143.094 164.55 137.094 160.95C131.194 157.35 126.544 152.3 123.144 145.8C119.744 139.3 118.044 131.9 118.044 123.6C118.044 115.2 119.744 107.85 123.144 101.55C126.544 95.15 131.194 90.2 137.094 86.7C143.094 83.2 149.744 81.45 157.044 81.45ZM187.644 123.75C187.644 117.55 186.394 112.15 183.894 107.55C181.394 102.95 177.994 99.45 173.694 97.05C169.494 94.55 164.844 93.3 159.744 93.3C154.644 93.3 149.994 94.5 145.794 96.9C141.594 99.3 138.244 102.8 135.744 107.4C133.244 112 131.994 117.4 131.994 123.6C131.994 129.9 133.244 135.4 135.744 140.1C138.244 144.7 141.594 148.25 145.794 150.75C149.994 153.15 154.644 154.35 159.744 154.35C164.844 154.35 169.494 153.15 173.694 150.75C177.994 148.25 181.394 144.7 183.894 140.1C186.394 135.4 187.644 129.95 187.644 123.75ZM238.161 96.15C240.561 91.45 243.961 87.8 248.361 85.2C252.861 82.6 258.311 81.3 264.711 81.3V95.4H261.111C245.811 95.4 238.161 103.7 238.161 120.3V165H224.511V82.8H238.161V96.15ZM316.318 166.35C308.618 166.35 301.618 164.6 295.318 161.1C289.118 157.6 284.218 152.65 280.618 146.25C277.118 139.75 275.368 132.25 275.368 123.75C275.368 115.35 277.168 107.95 280.768 101.55C284.468 95.05 289.468 90.1 295.768 86.7C302.068 83.2 309.118 81.45 316.918 81.45C324.718 81.45 331.768 83.2 338.068 86.7C344.368 90.1 349.318 95 352.918 101.4C356.618 107.8 358.468 115.25 358.468 123.75C358.468 132.25 356.568 139.75 352.768 146.25C349.068 152.65 344.018 157.6 337.618 161.1C331.218 164.6 324.118 166.35 316.318 166.35ZM316.318 154.35C321.218 154.35 325.818 153.2 330.118 150.9C334.418 148.6 337.868 145.15 340.468 140.55C343.168 135.95 344.518 130.35 344.518 123.75C344.518 117.15 343.218 111.55 340.618 106.95C338.018 102.35 334.618 98.95 330.418 96.75C326.218 94.45 321.668 93.3 316.768 93.3C311.768 93.3 307.168 94.45 302.968 96.75C298.868 98.95 295.568 102.35 293.068 106.95C290.568 111.55 289.318 117.15 289.318 123.75C289.318 130.45 290.518 136.1 292.918 140.7C295.418 145.3 298.718 148.75 302.818 151.05C306.918 153.25 311.418 154.35 316.318 154.35ZM470.046 96.15C472.446 91.45 475.846 87.8 480.246 85.2C484.746 82.6 490.196 81.3 496.596 81.3V95.4H492.996C477.696 95.4 470.046 103.7 470.046 120.3V165H456.396V82.8H470.046V96.15ZM507.253 123.6C507.253 115.2 508.953 107.85 512.353 101.55C515.753 95.15 520.403 90.2 526.303 86.7C532.303 83.2 538.953 81.45 546.253 81.45C553.453 81.45 559.703 83 565.003 86.1C570.303 89.2 574.253 93.1 576.853 97.8V82.8H590.653V165H576.853V149.7C574.153 154.5 570.103 158.5 564.703 161.7C559.403 164.8 553.203 166.35 546.103 166.35C538.803 166.35 532.203 164.55 526.303 160.95C520.403 157.35 515.753 152.3 512.353 145.8C508.953 139.3 507.253 131.9 507.253 123.6ZM576.853 123.75C576.853 117.55 575.603 112.15 573.103 107.55C570.603 102.95 567.203 99.45 562.903 97.05C558.703 94.55 554.053 93.3 548.953 93.3C543.853 93.3 539.203 94.5 535.003 96.9C530.803 99.3 527.453 102.8 524.953 107.4C522.453 112 521.203 117.4 521.203 123.6C521.203 129.9 522.453 135.4 524.953 140.1C527.453 144.7 530.803 148.25 535.003 150.75C539.203 153.15 543.853 154.35 548.953 154.35C554.053 154.35 558.703 153.15 562.903 150.75C567.203 148.25 570.603 144.7 573.103 140.1C575.603 135.4 576.853 129.95 576.853 123.75ZM608.62 123.75C608.62 115.25 610.32 107.85 613.72 101.55C617.12 95.15 621.82 90.2 627.82 86.7C633.92 83.2 640.87 81.45 648.67 81.45C658.77 81.45 667.07 83.9 673.57 88.8C680.17 93.7 684.52 100.5 686.62 109.2H671.92C670.52 104.2 667.77 100.25 663.67 97.35C659.67 94.45 654.67 93 648.67 93C640.87 93 634.57 95.7 629.77 101.1C624.97 106.4 622.57 113.95 622.57 123.75C622.57 133.65 624.97 141.3 629.77 146.7C634.57 152.1 640.87 154.8 648.67 154.8C654.67 154.8 659.67 153.4 663.67 150.6C667.67 147.8 670.42 143.8 671.92 138.6H686.62C684.42 147 680.02 153.75 673.42 158.85C666.82 163.85 658.57 166.35 648.67 166.35C640.87 166.35 633.92 164.6 627.82 161.1C621.82 157.6 617.12 152.65 613.72 146.25C610.32 139.85 608.62 132.35 608.62 123.75ZM750.733 165L718.483 128.7V165H704.833V54H718.483V119.25L750.133 82.8H769.183L730.483 123.75L769.333 165H750.733Z" fill="#393939"/>
</svg>
