<svg xmlns="http://www.w3.org/2000/svg" xmlns:xlink="http://www.w3.org/1999/xlink" width="64" zoomAndPan="magnify" viewBox="0 0 48 48" height="64" preserveAspectRatio="xMidYMid meet" version="1.0"><defs><clipPath id="ef54da27a0"><path d="M 0.488281 5.582031 L 47.507812 5.582031 L 47.507812 42.320312 L 0.488281 42.320312 Z M 0.488281 5.582031 " clip-rule="nonzero"/></clipPath></defs><g clip-path="url(#ef54da27a0)"><path fill="#069c54" d="M 41.375 26.074219 L 41.375 22.082031 C 41.375 12.980469 33.578125 5.582031 24 5.582031 C 14.421875 5.582031 6.625 12.980469 6.625 22.082031 L 6.625 26.074219 C 6.203125 26.132812 5.789062 26.230469 5.382812 26.367188 C 4.980469 26.5 4.589844 26.671875 4.214844 26.875 C 3.839844 27.078125 3.488281 27.3125 3.15625 27.582031 C 2.824219 27.847656 2.519531 28.140625 2.238281 28.464844 C 1.960938 28.785156 1.710938 29.128906 1.492188 29.496094 C 1.277344 29.859375 1.09375 30.242188 0.945312 30.640625 C 0.792969 31.039062 0.679688 31.449219 0.605469 31.867188 C 0.527344 32.285156 0.492188 32.710938 0.492188 33.132812 L 0.492188 35.175781 C 0.492188 35.644531 0.535156 36.109375 0.628906 36.570312 C 0.71875 37.027344 0.855469 37.476562 1.035156 37.910156 C 1.214844 38.34375 1.433594 38.753906 1.695312 39.144531 C 1.957031 39.535156 2.253906 39.894531 2.585938 40.226562 C 2.917969 40.558594 3.28125 40.855469 3.671875 41.113281 C 4.0625 41.375 4.472656 41.59375 4.90625 41.773438 C 5.339844 41.953125 5.789062 42.089844 6.25 42.179688 C 6.710938 42.273438 7.175781 42.320312 7.644531 42.320312 L 10.710938 42.320312 C 10.984375 42.320312 11.242188 42.265625 11.496094 42.164062 C 11.746094 42.058594 11.964844 41.910156 12.15625 41.71875 C 12.347656 41.527344 12.496094 41.308594 12.601562 41.058594 C 12.703125 40.808594 12.757812 40.546875 12.757812 40.277344 L 12.757812 28.03125 C 12.757812 27.761719 12.703125 27.5 12.601562 27.25 C 12.496094 27 12.347656 26.78125 12.15625 26.589844 C 11.964844 26.398438 11.746094 26.25 11.496094 26.148438 C 11.242188 26.042969 10.984375 25.992188 10.710938 25.992188 L 10.710938 22.082031 C 10.710938 15.238281 16.671875 9.664062 24 9.664062 C 31.328125 9.664062 37.289062 15.238281 37.289062 22.082031 L 37.289062 25.992188 C 37.015625 25.992188 36.757812 26.042969 36.503906 26.148438 C 36.253906 26.25 36.035156 26.398438 35.84375 26.589844 C 35.652344 26.78125 35.503906 27 35.398438 27.25 C 35.296875 27.5 35.242188 27.761719 35.242188 28.03125 L 35.242188 40.277344 C 35.242188 40.546875 35.296875 40.808594 35.398438 41.058594 C 35.503906 41.308594 35.652344 41.527344 35.84375 41.71875 C 36.035156 41.910156 36.253906 42.058594 36.503906 42.164062 C 36.757812 42.265625 37.015625 42.320312 37.289062 42.320312 L 40.355469 42.320312 C 40.824219 42.320312 41.289062 42.273438 41.75 42.179688 C 42.210938 42.089844 42.660156 41.953125 43.09375 41.773438 C 43.527344 41.59375 43.9375 41.375 44.328125 41.113281 C 44.71875 40.855469 45.082031 40.558594 45.414062 40.226562 C 45.746094 39.894531 46.042969 39.535156 46.304688 39.144531 C 46.566406 38.753906 46.785156 38.34375 46.964844 37.910156 C 47.144531 37.476562 47.28125 37.027344 47.371094 36.570312 C 47.464844 36.109375 47.507812 35.644531 47.507812 35.175781 L 47.507812 33.132812 C 47.507812 32.710938 47.472656 32.285156 47.394531 31.867188 C 47.320312 31.449219 47.207031 31.039062 47.054688 30.640625 C 46.90625 30.242188 46.722656 29.859375 46.507812 29.496094 C 46.289062 29.128906 46.039062 28.785156 45.761719 28.464844 C 45.480469 28.140625 45.175781 27.847656 44.84375 27.582031 C 44.511719 27.3125 44.160156 27.078125 43.785156 26.875 C 43.410156 26.671875 43.019531 26.5 42.617188 26.367188 C 42.210938 26.230469 41.796875 26.132812 41.375 26.074219 Z M 8.667969 38.238281 L 7.644531 38.238281 C 7.238281 38.238281 6.847656 38.160156 6.472656 38.003906 C 6.097656 37.847656 5.765625 37.628906 5.476562 37.339844 C 5.191406 37.054688 4.96875 36.722656 4.8125 36.347656 C 4.65625 35.972656 4.578125 35.582031 4.578125 35.175781 L 4.578125 33.132812 C 4.578125 32.730469 4.65625 32.339844 4.8125 31.964844 C 4.96875 31.589844 5.191406 31.257812 5.476562 30.96875 C 5.765625 30.683594 6.097656 30.460938 6.472656 30.304688 C 6.847656 30.152344 7.238281 30.074219 7.644531 30.074219 L 8.667969 30.074219 Z M 43.421875 35.175781 C 43.421875 35.582031 43.34375 35.972656 43.1875 36.347656 C 43.03125 36.722656 42.808594 37.054688 42.523438 37.339844 C 42.234375 37.628906 41.902344 37.847656 41.527344 38.003906 C 41.152344 38.160156 40.761719 38.238281 40.355469 38.238281 L 39.332031 38.238281 L 39.332031 30.074219 L 40.355469 30.074219 C 40.761719 30.074219 41.152344 30.152344 41.527344 30.304688 C 41.902344 30.460938 42.234375 30.683594 42.523438 30.96875 C 42.808594 31.257812 43.03125 31.589844 43.1875 31.964844 C 43.34375 32.339844 43.421875 32.730469 43.421875 33.132812 Z M 43.421875 35.175781 " fill-opacity="1" fill-rule="nonzero"/></g></svg>